# 3ds Max Wavefront OBJ Exporter v0.97b - (c)2007 guruware
# File Created: 21.12.2017 14:41:13

#
# object Line002
#

v  0.1516 -0.4357 -0.1932
v  0.1919 -0.3954 -0.2505
v  0.2036 -0.3950 -0.2420
v  0.1633 -0.4354 -0.1847
v  -0.1573 0.4331 0.2012
v  -0.1455 0.4334 0.2097
v  -0.1862 0.3980 0.2425
v  -0.1744 0.3983 0.2510
v  0.1946 -0.3012 -0.2000
v  0.2349 -0.2609 -0.2572
v  0.2467 -0.2605 -0.2487
v  0.2063 -0.3009 -0.1914
v  -0.1143 0.5676 0.1945
v  -0.1025 0.5679 0.2030
v  -0.1432 0.5325 0.2358
v  -0.1314 0.5328 0.2443
v  -0.2599 0.2321 -0.0067
v  -0.2839 0.1514 -0.0067
v  -0.2839 0.1514 0.0078
v  -0.2599 0.2321 0.0078
v  -0.3066 0.0724 -0.0067
v  -0.3066 0.0724 0.0078
v  -0.3269 -0.0010 -0.0067
v  -0.3269 -0.0010 0.0078
v  -0.3436 -0.0647 -0.0067
v  -0.3436 -0.0647 0.0078
v  -0.3555 -0.1148 -0.0067
v  -0.3555 -0.1148 0.0078
v  -0.3615 -0.1472 -0.0067
v  -0.3615 -0.1472 0.0078
v  -0.3603 -0.1580 -0.0067
v  -0.3603 -0.1580 0.0078
v  -0.3253 -0.1514 -0.0067
v  -0.3253 -0.1514 0.0078
v  -0.2492 -0.1394 -0.0067
v  -0.2492 -0.1394 0.0078
v  -0.1380 -0.1237 -0.0067
v  -0.1380 -0.1237 0.0078
v  0.0024 -0.1061 -0.0067
v  0.0024 -0.1061 0.0078
v  0.1660 -0.0885 -0.0067
v  0.1660 -0.0885 0.0078
v  0.3467 -0.0725 -0.0067
v  0.3467 -0.0725 0.0078
v  0.5386 -0.0600 -0.0067
v  0.5386 -0.0600 0.0078
v  0.5371 -0.0498 -0.0067
v  0.5371 -0.0498 0.0078
v  0.5364 -0.0394 -0.0067
v  0.5364 -0.0394 0.0078
v  0.5362 -0.0288 -0.0067
v  0.5362 -0.0288 0.0078
v  0.5366 -0.0180 -0.0067
v  0.5366 -0.0180 0.0078
v  0.5373 -0.0071 -0.0067
v  0.5373 -0.0071 0.0078
v  0.5383 0.0039 -0.0067
v  0.5383 0.0039 0.0078
v  0.5394 0.0149 -0.0067
v  0.5394 0.0149 0.0078
v  -0.0191 -0.0453 -0.0067
v  -0.0191 -0.0453 0.0078
v  -0.0191 0.0250 -0.0067
v  -0.0191 0.0250 0.0078
v  0.5227 0.0822 -0.0067
v  0.5227 0.0822 0.0078
v  0.5127 0.1487 -0.0067
v  0.5127 0.1487 0.0078
v  -0.0191 0.0919 -0.0067
v  -0.0191 0.0919 0.0078
v  -0.0225 0.1823 -0.0067
v  -0.0225 0.1823 0.0078
v  0.4960 0.2290 -0.0067
v  0.4960 0.2290 0.0078
v  0.4960 0.2992 -0.0067
v  0.4960 0.2992 0.0078
v  0.2763 0.2897 -0.0067
v  0.2763 0.2897 0.0078
v  0.1248 0.2801 -0.0067
v  0.1248 0.2801 0.0078
v  0.0231 0.2705 -0.0067
v  0.0231 0.2705 0.0078
v  -0.0477 0.2609 -0.0067
v  -0.0477 0.2609 0.0078
v  -0.1060 0.2513 -0.0067
v  -0.1060 0.2513 0.0078
v  -0.1706 0.2417 -0.0067
v  -0.1706 0.2417 0.0078
# 88 vertices

vn 0.3081 -0.8662 -0.3935
vn 0.4728 0.5670 -0.6745
vn -0.3497 0.8202 0.4527
vn -0.4793 -0.5511 0.6830
vn -0.8100 -0.0218 -0.5861
vn 0.8100 0.0218 0.5861
vn -0.9588 0.2841 -0.0000
vn -0.9600 0.2801 -0.0000
vn -0.9624 0.2715 -0.0000
vn -0.9655 0.2604 -0.0000
vn -0.9700 0.2430 0.0000
vn -0.9785 0.2064 -0.0000
vn -0.9994 0.0345 -0.0000
vn -0.5938 -0.8046 -0.0000
vn 0.1708 -0.9853 0.0000
vn 0.1478 -0.9890 -0.0000
vn 0.1318 -0.9913 -0.0000
vn 0.1157 -0.9933 0.0000
vn 0.0976 -0.9952 -0.0000
vn 0.0765 -0.9971 0.0000
vn 0.0650 -0.9979 -0.0000
vn 0.9893 0.1456 0.0000
vn 0.9940 0.1089 0.0000
vn 0.9991 0.0423 0.0000
vn 0.9999 -0.0106 -0.0000
vn 0.9987 -0.0505 0.0000
vn 0.9969 -0.0782 0.0000
vn 0.9955 -0.0946 0.0000
vn 0.9950 -0.0999 0.0000
vn -0.1072 0.9942 0.0000
vn -0.1072 0.9942 -0.0000
vn 1.0000 0.0000 0.0000
vn 0.1050 -0.9945 0.0000
vn 0.9888 0.1491 -0.0000
vn -0.1063 0.9943 -0.0000
vn -0.1063 0.9943 0.0000
vn 0.9993 0.0370 0.0000
vn 0.0898 -0.9960 0.0000
vn 0.0898 -0.9960 -0.0000
vn 1.0000 -0.0000 0.0000
vn -0.0436 0.9990 -0.0000
vn -0.0534 0.9986 0.0000
vn -0.0785 0.9969 0.0000
vn -0.1141 0.9935 0.0000
vn -0.1483 0.9889 0.0000
vn -0.1546 0.9880 0.0000
vn -0.1269 0.9919 -0.0000
vn -0.1067 0.9943 -0.0000
vn 0.0000 0.0000 -1.0000
vn 0.0000 -0.0000 -1.0000
vn -0.0000 0.0000 -1.0000
vn -0.0000 -0.0000 -1.0000
vn -0.0000 0.0000 1.0000
vn -0.0000 -0.0000 1.0000
vn 0.0000 0.0000 1.0000
vn 0.0000 -0.0000 1.0000
# 56 vertex normals

vt 0.0000 0.0000 0.0000
vt 0.0376 0.0000 0.0000
vt 0.5061 0.0000 0.0000
vt 0.5347 0.0000 0.0000
vt 1.0000 0.0000 0.0000
vt 0.0000 1.0000 0.0000
vt 0.0376 1.0000 0.0000
vt 0.5061 1.0000 0.0000
vt 0.5347 1.0000 0.0000
vt 1.0000 1.0000 0.0000
vt 0.8642 0.0000 0.0000
vt 1.0000 0.0366 0.0000
vt 0.0988 1.0000 0.0000
vt 0.0000 0.9670 0.0000
vt 0.8642 0.0000 0.0000
vt 1.0000 0.0366 0.0000
vt 0.0988 1.0000 0.0000
vt 0.0000 0.9670 0.0000
vt 0.0000 0.0000 0.0000
vt 0.0376 0.0000 0.0000
vt 0.5061 0.0000 0.0000
vt 0.5347 0.0000 0.0000
vt 1.0000 0.0000 0.0000
vt 0.0000 1.0000 0.0000
vt 0.0376 1.0000 0.0000
vt 0.5061 1.0000 0.0000
vt 0.5347 1.0000 0.0000
vt 1.0000 1.0000 0.0000
vt 0.8642 0.0000 0.0000
vt 1.0000 0.0366 0.0000
vt 0.0988 1.0000 0.0000
vt 0.0000 0.9670 0.0000
vt 0.8642 0.0000 0.0000
vt 1.0000 0.0366 0.0000
vt 0.0988 1.0000 0.0000
vt 0.0000 0.9670 0.0000
vt 0.0000 0.0000 0.0000
vt 0.0183 0.0000 0.0000
vt 0.0361 0.0000 0.0000
vt 0.0527 0.0000 0.0000
vt 0.0670 0.0000 0.0000
vt 0.0782 0.0000 0.0000
vt 0.0853 0.0000 0.0000
vt 0.0877 0.0000 0.0000
vt 0.0954 0.0000 0.0000
vt 0.1122 0.0000 0.0000
vt 0.1366 0.0000 0.0000
vt 0.1673 0.0000 0.0000
vt 0.2030 0.0000 0.0000
vt 0.2424 0.0000 0.0000
vt 0.2842 0.0000 0.0000
vt 0.2865 0.0000 0.0000
vt 0.2887 0.0000 0.0000
vt 0.2910 0.0000 0.0000
vt 0.2934 0.0000 0.0000
vt 0.2958 0.0000 0.0000
vt 0.2982 0.0000 0.0000
vt 0.3006 0.0000 0.0000
vt 0.4226 0.0000 0.0000
vt 0.4379 0.0000 0.0000
vt 0.5562 0.0000 0.0000
vt 0.5708 0.0000 0.0000
vt 0.6870 0.0000 0.0000
vt 0.7067 0.0000 0.0000
vt 0.8198 0.0000 0.0000
vt 0.8350 0.0000 0.0000
vt 0.8828 0.0000 0.0000
vt 0.9157 0.0000 0.0000
vt 0.9379 0.0000 0.0000
vt 0.9535 0.0000 0.0000
vt 0.9663 0.0000 0.0000
vt 0.9805 0.0000 0.0000
vt 1.0000 0.0000 0.0000
vt 0.0000 1.0000 0.0000
vt 0.0183 1.0000 0.0000
vt 0.0361 1.0000 0.0000
vt 0.0527 1.0000 0.0000
vt 0.0670 1.0000 0.0000
vt 0.0782 1.0000 0.0000
vt 0.0853 1.0000 0.0000
vt 0.0877 1.0000 0.0000
vt 0.0954 1.0000 0.0000
vt 0.1122 1.0000 0.0000
vt 0.1366 1.0000 0.0000
vt 0.1673 1.0000 0.0000
vt 0.2030 1.0000 0.0000
vt 0.2424 1.0000 0.0000
vt 0.2842 1.0000 0.0000
vt 0.2865 1.0000 0.0000
vt 0.2887 1.0000 0.0000
vt 0.2910 1.0000 0.0000
vt 0.2934 1.0000 0.0000
vt 0.2958 1.0000 0.0000
vt 0.2982 1.0000 0.0000
vt 0.3006 1.0000 0.0000
vt 0.4226 1.0000 0.0000
vt 0.4379 1.0000 0.0000
vt 0.5562 1.0000 0.0000
vt 0.5708 1.0000 0.0000
vt 0.6870 1.0000 0.0000
vt 0.7067 1.0000 0.0000
vt 0.8198 1.0000 0.0000
vt 0.8350 1.0000 0.0000
vt 0.8828 1.0000 0.0000
vt 0.9157 1.0000 0.0000
vt 0.9379 1.0000 0.0000
vt 0.9535 1.0000 0.0000
vt 0.9663 1.0000 0.0000
vt 0.9805 1.0000 0.0000
vt 1.0000 1.0000 0.0000
vt 0.1127 0.8532 0.0000
vt 0.0862 0.6767 0.0000
vt 0.0610 0.5038 0.0000
vt 0.0384 0.3433 0.0000
vt 0.0199 0.2040 0.0000
vt 0.0066 0.0945 0.0000
vt 0.0000 0.0236 0.0000
vt 0.0014 0.0000 0.0000
vt 0.0402 0.0144 -0.0000
vt 0.1246 0.0407 -0.0000
vt 0.2481 0.0750 -0.0000
vt 0.4039 0.1134 -0.0000
vt 0.5855 0.1520 -0.0000
vt 0.7861 0.1869 -0.0000
vt 0.9991 0.2143 0.0000
vt 0.9974 0.2365 0.0000
vt 0.9966 0.2593 0.0000
vt 0.9965 0.2826 0.0000
vt 0.9969 0.3062 0.0000
vt 0.9977 0.3300 0.0000
vt 0.9988 0.3541 0.0000
vt 1.0000 0.3782 0.0000
vt 0.3800 0.2466 0.0000
vt 0.3800 0.4002 0.0000
vt 0.9814 0.5253 0.0000
vt 0.9703 0.6708 0.0000
vt 0.3800 0.5465 0.0000
vt 0.3763 0.7442 0.0000
vt 0.9517 0.8464 0.0000
vt 0.9517 1.0000 0.0000
vt 0.7079 0.9790 0.0000
vt 0.5398 0.9580 0.0000
vt 0.4269 0.9371 0.0000
vt 0.3483 0.9161 0.0000
vt 0.2836 0.8951 0.0000
vt 0.2119 0.8741 0.0000
vt 0.1127 0.8532 0.0000
vt 0.0862 0.6767 0.0000
vt 0.0610 0.5038 0.0000
vt 0.0384 0.3433 0.0000
vt 0.0199 0.2040 0.0000
vt 0.0066 0.0945 0.0000
vt 0.0000 0.0236 0.0000
vt 0.0014 0.0000 0.0000
vt 0.0402 0.0144 -0.0000
vt 0.1246 0.0407 -0.0000
vt 0.2481 0.0750 -0.0000
vt 0.4039 0.1134 -0.0000
vt 0.5855 0.1520 -0.0000
vt 0.7861 0.1869 -0.0000
vt 0.9991 0.2143 0.0000
vt 0.9974 0.2365 0.0000
vt 0.9966 0.2593 0.0000
vt 0.9965 0.2826 0.0000
vt 0.9969 0.3062 0.0000
vt 0.9977 0.3300 0.0000
vt 0.9988 0.3541 0.0000
vt 1.0000 0.3782 0.0000
vt 0.3800 0.2466 0.0000
vt 0.3800 0.4002 0.0000
vt 0.9814 0.5253 0.0000
vt 0.9703 0.6708 0.0000
vt 0.3800 0.5465 0.0000
vt 0.3763 0.7442 0.0000
vt 0.9517 0.8464 0.0000
vt 0.9517 1.0000 0.0000
vt 0.7079 0.9790 0.0000
vt 0.5398 0.9580 0.0000
vt 0.4269 0.9371 0.0000
vt 0.3483 0.9161 0.0000
vt 0.2836 0.8951 0.0000
vt 0.2119 0.8741 0.0000
# 182 texture coords

o Line002
g Line002
f 1/1/1 2/2/1 3/7/1 
f 1/1/1 3/7/1 4/6/1 
f 2/2/2 5/3/2 6/8/2 
f 2/2/2 6/8/2 3/7/2 
f 5/3/3 7/4/3 8/9/3 
f 5/3/3 8/9/3 6/8/3 
f 7/4/4 1/5/4 4/10/4 
f 7/4/4 4/10/4 8/9/4 
f 1/11/5 5/13/5 2/12/5 
f 7/14/5 5/13/5 1/11/5 
f 4/15/6 3/16/6 6/17/6 
f 8/18/6 4/15/6 6/17/6 
f 9/19/1 10/20/1 11/25/1 
f 9/19/1 11/25/1 12/24/1 
f 10/20/2 13/21/2 14/26/2 
f 10/20/2 14/26/2 11/25/2 
f 13/21/3 15/22/3 16/27/3 
f 13/21/3 16/27/3 14/26/3 
f 15/22/4 9/23/4 12/28/4 
f 15/22/4 12/28/4 16/27/4 
f 9/29/5 13/31/5 10/30/5 
f 15/32/5 13/31/5 9/29/5 
f 12/33/6 11/34/6 14/35/6 
f 16/36/6 12/33/6 14/35/6 
f 17/37/7 18/38/8 19/75/8 
f 17/37/7 19/75/8 20/74/7 
f 18/38/8 21/39/9 22/76/9 
f 18/38/8 22/76/9 19/75/8 
f 21/39/9 23/40/10 24/77/10 
f 21/39/9 24/77/10 22/76/9 
f 23/40/10 25/41/11 26/78/11 
f 23/40/10 26/78/11 24/77/10 
f 25/41/11 27/42/12 28/79/12 
f 25/41/11 28/79/12 26/78/11 
f 27/42/12 29/43/13 30/80/13 
f 27/42/12 30/80/13 28/79/12 
f 29/43/13 31/44/14 32/81/14 
f 29/43/13 32/81/14 30/80/13 
f 31/44/14 33/45/15 34/82/15 
f 31/44/14 34/82/15 32/81/14 
f 33/45/15 35/46/16 36/83/16 
f 33/45/15 36/83/16 34/82/15 
f 35/46/16 37/47/17 38/84/17 
f 35/46/16 38/84/17 36/83/16 
f 37/47/17 39/48/18 40/85/18 
f 37/47/17 40/85/18 38/84/17 
f 39/48/18 41/49/19 42/86/19 
f 39/48/18 42/86/19 40/85/18 
f 41/49/19 43/50/20 44/87/20 
f 41/49/19 44/87/20 42/86/19 
f 43/50/20 45/51/21 46/88/21 
f 43/50/20 46/88/21 44/87/20 
f 45/51/22 47/52/23 48/89/23 
f 45/51/22 48/89/23 46/88/22 
f 47/52/23 49/53/24 50/90/24 
f 47/52/23 50/90/24 48/89/23 
f 49/53/24 51/54/25 52/91/25 
f 49/53/24 52/91/25 50/90/24 
f 51/54/25 53/55/26 54/92/26 
f 51/54/25 54/92/26 52/91/25 
f 53/55/26 55/56/27 56/93/27 
f 53/55/26 56/93/27 54/92/26 
f 55/56/27 57/57/28 58/94/28 
f 55/56/27 58/94/28 56/93/27 
f 57/57/28 59/58/29 60/95/29 
f 57/57/28 60/95/29 58/94/28 
f 59/58/30 61/59/31 62/96/31 
f 59/58/30 62/96/31 60/95/30 
f 61/59/32 63/60/32 64/97/32 
f 61/59/32 64/97/32 62/96/32 
f 63/60/33 65/61/33 66/98/33 
f 63/60/33 66/98/33 64/97/33 
f 65/61/34 67/62/34 68/99/34 
f 65/61/34 68/99/34 66/98/34 
f 67/62/35 69/63/36 70/100/35 
f 67/62/35 70/100/35 68/99/35 
f 69/63/37 71/64/37 72/101/37 
f 69/63/37 72/101/37 70/100/37 
f 71/64/38 73/65/39 74/102/39 
f 71/64/38 74/102/39 72/101/38 
f 73/65/40 75/66/40 76/103/40 
f 73/65/40 76/103/40 74/102/40 
f 75/66/41 77/67/42 78/104/42 
f 75/66/41 78/104/42 76/103/41 
f 77/67/42 79/68/43 80/105/43 
f 77/67/42 80/105/43 78/104/42 
f 79/68/43 81/69/44 82/106/44 
f 79/68/43 82/106/44 80/105/43 
f 81/69/44 83/70/45 84/107/45 
f 81/69/44 84/107/45 82/106/44 
f 83/70/45 85/71/46 86/108/46 
f 83/70/45 86/108/46 84/107/45 
f 85/71/46 87/72/47 88/109/47 
f 85/71/46 88/109/47 86/108/46 
f 87/72/47 17/73/48 20/110/48 
f 87/72/47 20/110/48 88/109/47 
f 57/131/49 61/133/49 59/132/50 
f 55/130/51 61/133/49 57/131/49 
f 53/129/52 61/133/49 55/130/51 
f 51/128/51 61/133/49 53/129/52 
f 43/124/51 47/126/50 45/125/49 
f 29/117/50 33/119/52 31/118/50 
f 27/116/51 33/119/52 29/117/50 
f 63/134/49 67/136/49 65/135/49 
f 63/134/49 69/137/51 67/136/49 
f 73/139/51 77/141/49 75/140/51 
f 71/138/51 77/141/49 73/139/51 
f 71/138/51 79/142/49 77/141/49 
f 71/138/51 81/143/51 79/142/49 
f 71/138/51 83/144/49 81/143/51 
f 49/127/49 61/133/49 51/128/51 
f 43/124/51 49/127/49 47/126/50 
f 43/124/51 61/133/49 49/127/49 
f 41/123/51 61/133/49 43/124/51 
f 39/122/51 61/133/49 41/123/51 
f 37/121/49 61/133/49 39/122/51 
f 71/138/51 85/145/51 83/144/49 
f 87/146/51 18/112/51 17/111/52 
f 27/116/51 35/120/51 33/119/52 
f 25/115/51 35/120/51 27/116/51 
f 23/114/51 35/120/51 25/115/51 
f 23/114/51 37/121/49 35/120/51 
f 21/113/49 37/121/49 23/114/51 
f 21/113/49 61/133/49 37/121/49 
f 21/113/49 63/134/49 61/133/49 
f 21/113/49 69/137/51 63/134/49 
f 18/112/51 69/137/51 21/113/49 
f 87/146/51 69/137/51 18/112/51 
f 87/146/51 71/138/51 69/137/51 
f 87/146/51 85/145/51 71/138/51 
f 58/167/53 60/168/53 62/169/54 
f 56/166/55 58/167/53 62/169/54 
f 54/165/56 56/166/55 62/169/54 
f 52/164/56 54/165/56 62/169/54 
f 44/160/56 46/161/54 48/162/56 
f 30/153/53 32/154/53 34/155/54 
f 28/152/54 30/153/53 34/155/54 
f 64/170/54 66/171/54 68/172/54 
f 64/170/54 68/172/54 70/173/56 
f 74/175/56 76/176/56 78/177/56 
f 72/174/56 74/175/56 78/177/56 
f 72/174/56 78/177/56 80/178/56 
f 72/174/56 80/178/56 82/179/56 
f 72/174/56 82/179/56 84/180/54 
f 50/163/55 52/164/56 62/169/54 
f 44/160/56 48/162/56 50/163/55 
f 44/160/56 50/163/55 62/169/54 
f 42/159/56 44/160/56 62/169/54 
f 40/158/56 42/159/56 62/169/54 
f 38/157/56 40/158/56 62/169/54 
f 72/174/56 84/180/54 86/181/56 
f 88/182/56 20/147/53 19/148/56 
f 28/152/54 34/155/54 36/156/56 
f 26/151/56 28/152/54 36/156/56 
f 24/150/55 26/151/56 36/156/56 
f 24/150/55 36/156/56 38/157/56 
f 22/149/56 24/150/55 38/157/56 
f 22/149/56 38/157/56 62/169/54 
f 22/149/56 62/169/54 64/170/54 
f 22/149/56 64/170/54 70/173/56 
f 19/148/56 22/149/56 70/173/56 
f 88/182/56 19/148/56 70/173/56 
f 88/182/56 70/173/56 72/174/56 
f 88/182/56 72/174/56 86/181/56 
# 164 faces

