# 3ds Max Wavefront OBJ Exporter v0.97b - (c)2007 guruware
# File Created: 21.12.2017 14:59:36

#
# object Line003
#

v  -0.0100 0.4347 0.0000
v  0.1947 0.2275 0.0000
v  0.1947 0.2275 0.0211
v  -0.0100 0.4347 0.0211
v  0.1953 -0.1857 -0.0000
v  0.1953 -0.1857 0.0211
v  0.3048 -0.3567 -0.0000
v  0.3048 -0.3567 0.0211
v  0.3074 0.2275 0.0000
v  0.3074 0.2275 0.0211
v  0.1333 0.4356 0.0000
v  0.1333 0.4356 0.0211
v  -0.2844 0.4244 0.0000
v  -0.0580 0.2186 0.0000
v  -0.0580 0.2186 0.0211
v  -0.2844 0.4244 0.0211
v  -0.0580 -0.1896 -0.0000
v  -0.0580 -0.1896 0.0211
v  0.0515 -0.3669 -0.0000
v  0.0515 -0.3669 0.0211
v  0.0550 0.2145 0.0000
v  0.0550 0.2145 0.0211
v  -0.1606 0.4266 0.0000
v  -0.1606 0.4266 0.0211
v  -0.2878 0.4278 0.0000
v  -0.4182 0.3112 0.0000
v  -0.4182 0.3112 0.0211
v  -0.2878 0.4278 0.0211
v  -0.4182 -0.1964 -0.0000
v  -0.4182 -0.1964 0.0211
v  -0.2868 -0.3611 -0.0000
v  -0.2868 -0.3611 0.0211
# 32 vertices

vn -0.7114 -0.7028 -0.0000
vn -1.0000 -0.0013 -0.0000
vn -0.8422 -0.5392 -0.0000
vn 1.0000 -0.0045 -0.0000
vn 0.7669 0.6418 0.0000
vn -0.0060 1.0000 0.0000
vn 0.0000 0.0000 -1.0000
vn 0.0000 -0.0000 1.0000
vn -0.6727 -0.7399 -0.0000
vn -1.0000 0.0000 -0.0000
vn -0.8508 -0.5255 -0.0000
vn 1.0000 -0.0059 -0.0000
vn 0.7013 0.7128 0.0000
vn -0.0175 0.9998 0.0000
vn -0.0000 0.0000 -1.0000
vn -0.6668 0.7452 0.0000
vn -0.7816 -0.6238 -0.0000
vn 1.0000 0.0013 0.0000
# 18 vertex normals

vt 0.0000 0.0000 0.0000
vt 0.1528 0.0000 0.0000
vt 0.3695 0.0000 0.0000
vt 0.4761 0.0000 0.0000
vt 0.7825 0.0000 0.0000
vt 0.9248 0.0000 0.0000
vt 1.0000 0.0000 0.0000
vt 0.0000 1.0000 0.0000
vt 0.1528 1.0000 0.0000
vt 0.3695 1.0000 0.0000
vt 0.4761 1.0000 0.0000
vt 0.7825 1.0000 0.0000
vt 0.9248 1.0000 0.0000
vt 1.0000 1.0000 0.0000
vt 0.0000 0.9989 0.0000
vt 0.6450 0.7374 0.0000
vt 0.6467 0.2159 -0.0000
vt 0.9917 0.0000 0.0000
vt 1.0000 0.7374 0.0000
vt 0.4514 1.0000 0.0000
vt 0.0000 0.9989 0.0000
vt 0.6450 0.7374 0.0000
vt 0.6467 0.2159 0.0000
vt 0.9917 0.0000 0.0000
vt 1.0000 0.7374 0.0000
vt 0.4514 1.0000 0.0000
vt 0.0000 0.0000 0.0000
vt 0.1585 0.0000 0.0000
vt 0.3700 0.0000 0.0000
vt 0.4780 0.0000 0.0000
vt 0.7792 0.0000 0.0000
vt 0.9359 0.0000 0.0000
vt 1.0000 0.0000 0.0000
vt 0.0000 1.0000 0.0000
vt 0.1585 1.0000 0.0000
vt 0.3700 1.0000 0.0000
vt 0.4780 1.0000 0.0000
vt 0.7792 1.0000 0.0000
vt 0.9359 1.0000 0.0000
vt 1.0000 1.0000 0.0000
vt 0.0000 0.9973 0.0000
vt 0.6671 0.7379 0.0000
vt 0.6671 0.2235 0.0000
vt 0.9899 0.0000 -0.0000
vt 1.0000 0.7327 0.0000
vt 0.3648 1.0000 -0.0000
vt 0.0000 0.9973 0.0000
vt 0.6671 0.7379 0.0000
vt 0.6671 0.2235 0.0000
vt 0.9899 0.0000 0.0000
vt 1.0000 0.7327 0.0000
vt 0.3648 1.0000 0.0000
vt 0.0000 0.0000 0.0000
vt 0.1040 0.0000 0.0000
vt 0.4058 0.0000 0.0000
vt 0.5310 0.0000 0.0000
vt 1.0000 0.0000 0.0000
vt 0.0000 1.0000 0.0000
vt 0.1040 1.0000 0.0000
vt 0.4058 1.0000 0.0000
vt 0.5310 1.0000 0.0000
vt 1.0000 1.0000 0.0000
vt 0.9920 1.0000 0.0000
vt 0.0000 0.8522 0.0000
vt 0.0000 0.2087 0.0000
vt 1.0000 0.0000 0.0000
vt 0.9920 1.0000 0.0000
vt 0.0000 0.8522 0.0000
vt 0.0000 0.2087 0.0000
vt 1.0000 0.0000 0.0000
# 70 texture coords

o Line003
g Line003
f 1/1/1 2/2/1 3/9/1 
f 1/1/1 3/9/1 4/8/1 
f 2/2/2 5/3/2 6/10/2 
f 2/2/2 6/10/2 3/9/2 
f 5/3/3 7/4/3 8/11/3 
f 5/3/3 8/11/3 6/10/3 
f 7/4/4 9/5/4 10/12/4 
f 7/4/4 10/12/4 8/11/4 
f 9/5/5 11/6/5 12/13/5 
f 9/5/5 12/13/5 10/12/5 
f 11/6/6 1/7/6 4/14/6 
f 11/6/6 4/14/6 12/13/6 
f 5/17/7 9/19/7 7/18/7 
f 2/16/7 9/19/7 5/17/7 
f 11/20/7 2/16/7 1/15/7 
f 9/19/7 2/16/7 11/20/7 
f 6/23/8 8/24/8 10/25/8 
f 3/22/8 6/23/8 10/25/8 
f 12/26/8 4/21/8 3/22/8 
f 10/25/8 12/26/8 3/22/8 
f 13/27/9 14/28/9 15/35/9 
f 13/27/9 15/35/9 16/34/9 
f 14/28/10 17/29/10 18/36/10 
f 14/28/10 18/36/10 15/35/10 
f 17/29/11 19/30/11 20/37/11 
f 17/29/11 20/37/11 18/36/11 
f 19/30/12 21/31/12 22/38/12 
f 19/30/12 22/38/12 20/37/12 
f 21/31/13 23/32/13 24/39/13 
f 21/31/13 24/39/13 22/38/13 
f 23/32/14 13/33/14 16/40/14 
f 23/32/14 16/40/14 24/39/14 
f 17/43/15 21/45/7 19/44/15 
f 14/42/7 21/45/7 17/43/15 
f 14/42/7 23/46/15 21/45/7 
f 13/41/15 23/46/15 14/42/7 
f 18/49/8 20/50/8 22/51/8 
f 15/48/8 18/49/8 22/51/8 
f 15/48/8 22/51/8 24/52/8 
f 16/47/8 15/48/8 24/52/8 
f 25/53/16 26/54/16 27/59/16 
f 25/53/16 27/59/16 28/58/16 
f 26/54/10 29/55/10 30/60/10 
f 26/54/10 30/60/10 27/59/10 
f 29/55/17 31/56/17 32/61/17 
f 29/55/17 32/61/17 30/60/17 
f 31/56/18 25/57/18 28/62/18 
f 31/56/18 28/62/18 32/61/18 
f 29/65/7 25/63/7 31/66/7 
f 26/64/7 25/63/7 29/65/7 
f 30/69/8 32/70/8 28/67/8 
f 27/68/8 30/69/8 28/67/8 
# 52 faces

